HIERARCHY
ROOT Hips
{
	OFFSET 0.000000 0.000000 0.000000
	CHANNELS 6 Xposition Yposition Zposition Xrotation Yrotation Zrotation
	JOINT LeftUpLeg_virtual
	{
		OFFSET 0.000000 0.000000 0.000000
		CHANNELS 3 Xrotation Yrotation Zrotation
		JOINT LeftUpLeg
		{
			OFFSET 10.205400 -3.823500 0.155100
			CHANNELS 3 Xrotation Yrotation Zrotation
			JOINT LeftLeg
			{
				OFFSET 0.708757 -12.982077 0.567790
				CHANNELS 3 Xrotation Yrotation Zrotation
				JOINT LeftFoot
				{
					OFFSET -0.708756 -10.717838 -2.184338
					CHANNELS 3 Xrotation Yrotation Zrotation
					JOINT LeftToeBase
					{
						OFFSET 0.108149 -7.191104 7.560241
						CHANNELS 3 Xrotation Yrotation Zrotation
						JOINT LeftToe_End
						{
							OFFSET 0.070230 0.081724 4.490308
							CHANNELS 3 Xrotation Yrotation Zrotation
							End Site
							{
								OFFSET 0 0 0
							}
						}
					}
				}
			}
		}
	}
	JOINT RightUpLeg_virtual
	{
		OFFSET 0.000000 0.000000 0.000000
		CHANNELS 3 Xrotation Yrotation Zrotation
		JOINT RightUpLeg
		{
			OFFSET -10.205400 -3.823500 0.005500
			CHANNELS 3 Xrotation Yrotation Zrotation
			JOINT RightLeg
			{
				OFFSET -0.708756 -12.982134 0.610632
				CHANNELS 3 Xrotation Yrotation Zrotation
				JOINT RightFoot
				{
					OFFSET 0.708754 -10.717769 -1.945823
					CHANNELS 3 Xrotation Yrotation Zrotation
					JOINT RightToeBase
					{
						OFFSET -0.108140 -7.191069 7.372968
						CHANNELS 3 Xrotation Yrotation Zrotation
						JOINT RightToe_End
						{
							OFFSET -0.070227 0.081735 4.479403
							CHANNELS 3 Xrotation Yrotation Zrotation
							End Site
							{
								OFFSET 0 0 0
							}
						}
					}
				}
			}
		}
	}
	JOINT Spine_virtual
	{
		OFFSET 0.000000 0.000000 0.000000
		CHANNELS 3 Xrotation Yrotation Zrotation
		JOINT Spine
		{
			OFFSET 0.000000 6.876099 0.125700
			CHANNELS 3 Xrotation Yrotation Zrotation
			JOINT Spine1
			{
				OFFSET 0.000000 5.730043 0.104720
				CHANNELS 3 Xrotation Yrotation Zrotation
				JOINT Spine1_split
				{
					OFFSET 0.000000 5.730043 0.104720
					CHANNELS 3 Xrotation Yrotation Zrotation
					JOINT Spine2
					{
						OFFSET 0.000000 5.730043 0.104720
						CHANNELS 3 Xrotation Yrotation Zrotation
						JOINT Neck_virtual
						{
							OFFSET 0.000000 0.000000 0.000000
							CHANNELS 3 Xrotation Yrotation Zrotation
							JOINT Neck
							{
								OFFSET 0.000000 10.314075 0.188496
								CHANNELS 3 Xrotation Yrotation Zrotation
								JOINT Head
								{
									OFFSET 0.000000 7.643700 -2.377400
									CHANNELS 3 Xrotation Yrotation Zrotation
									JOINT HeadTop_End
									{
										OFFSET 0.000000 43.788605 -13.619600
										CHANNELS 3 Xrotation Yrotation Zrotation
										End Site
										{
											OFFSET 0 0 0
										}
									}
								}
							}
						}
						JOINT LeftShoulder_virtual
						{
							OFFSET 0.000000 0.000000 0.000000
							CHANNELS 3 Xrotation Yrotation Zrotation
							JOINT LeftShoulder
							{
								OFFSET 2.196100 4.412489 0.087492
								CHANNELS 3 Xrotation Yrotation Zrotation
								JOINT LeftShoulder_split
								{
									OFFSET 2.196100 4.412489 0.087492
									CHANNELS 3 Xrotation Yrotation Zrotation
									JOINT LeftArm
									{
										OFFSET 8.771219 -2.981674 -0.026999
										CHANNELS 3 Xrotation Yrotation Zrotation
										JOINT LeftForeArm
										{
											OFFSET 8.512804 0.000000 -0.000000
											CHANNELS 3 Xrotation Yrotation Zrotation
											JOINT LeftHand
											{
												OFFSET 18.484802 0.000000 -0.000000
												CHANNELS 3 Xrotation Yrotation Zrotation
												End Site
												{
													OFFSET 0 0 0
												}
											}
										}
									}
								}
							}
						}
						JOINT RightShoulder_virtual
						{
							OFFSET 0.000000 0.000000 0.000000
							CHANNELS 3 Xrotation Yrotation Zrotation
							JOINT RightShoulder
							{
								OFFSET -2.196100 4.412496 0.070690
								CHANNELS 3 Xrotation Yrotation Zrotation
								JOINT RightShoulder_split
								{
									OFFSET -2.196100 4.412496 0.070690
									CHANNELS 3 Xrotation Yrotation Zrotation
									JOINT RightArm
									{
										OFFSET -8.771282 -2.981682 -0.094208
										CHANNELS 3 Xrotation Yrotation Zrotation
										JOINT RightForeArm
										{
											OFFSET -8.494598 0.000000 0.000000
											CHANNELS 3 Xrotation Yrotation Zrotation
											JOINT RightHand
											{
												OFFSET -18.483803 0.000000 0.000001
												CHANNELS 3 Xrotation Yrotation Zrotation
												End Site
												{
													OFFSET 0 0 0
												}
											}
										}
									}
								}
							}
						}
					}
				}
			}
		}
	}
}
MOTION
Frames: 8
Frame Time: 0.03333333
-0.636057 33.421246 -3.067378 0.000000 0.000000 0.000000 4.288639 -84.071200 5.379373 -13.458942 22.418388 15.680986 30.213048 -10.207851 -3.139798 -18.769773 4.154390 -11.407233 -2.351766 -0.277855 -0.823382 0.000000 0.000000 0.000000 2.752433 -82.045100 3.133933 -7.618268 -14.809387 -11.734600 27.039660 14.309401 -1.268006 -23.446101 -9.825075 14.739898 4.367204 -0.078218 -20.764168 0.000000 0.000000 0.000000 -16.486258 -81.509162 -15.416958 -6.086211 3.970825 2.991019 9.923323 -0.625880 2.082974 -0.022154 -0.069182 0.014038 0.000000 0.000000 0.000000 10.809306 1.408398 3.121155 -5.291999 11.527967 -3.047489 -4.109646 -37.389726 -8.389766 0.000000 0.000000 0.000000 9.905385 0.012126 2.244130 -0.055872 1.707827 -4.436744 8.674791 -4.861913 0.539844 37.083085 -78.140301 -27.462171 -3.176849 -13.901469 -0.590816 0.000000 0.000000 0.000000 10.313218 0.099597 3.045955 -9.760690 -1.796508 6.505610 4.477870 1.848759 2.596406 5.065615 32.580439 68.520383 -3.907599 20.695215 -6.828360 0.000000 0.000000 0.000000 
-0.663975 33.429420 -2.958527 0.000000 0.000000 0.000000 3.296525 -84.056304 4.439160 -13.465037 21.703940 15.743212 29.975791 -10.092827 -3.243132 -18.119467 4.500903 -11.079667 -2.393735 -0.230127 -1.022761 0.000000 0.000000 0.000000 3.820588 -82.022328 4.053949 -7.590209 -14.738621 -11.754728 27.143042 14.268450 -1.346589 -23.317637 -9.693411 14.913126 4.026516 -0.020341 -20.702163 0.000000 0.000000 0.000000 -16.682016 -81.607046 -15.608606 -5.797764 3.879562 2.872760 9.533874 -0.616162 2.138030 -0.010103 -0.127749 0.058086 0.000000 0.000000 0.000000 10.817212 1.484923 3.122029 -5.384269 11.514118 -2.962754 -4.922444 -37.206854 -8.827276 0.000000 0.000000 0.000000 9.932626 0.030862 2.326883 0.008366 1.506683 -4.361727 8.799111 -5.098906 -0.108566 38.596921 -78.280470 -25.912694 -3.476263 -13.949465 -0.837253 0.000000 0.000000 0.000000 10.244201 0.138273 3.141770 -9.679596 -1.754121 6.133691 4.952168 2.076436 2.333177 5.107843 32.699141 68.498376 -3.707290 20.519657 -6.957417 0.000000 0.000000 0.000000 
-0.689448 33.480175 -2.837770 0.000000 0.000000 0.000000 3.186612 -84.164774 4.352498 -13.526479 20.864242 15.764422 29.781896 -10.008727 -3.347995 -17.415510 4.981425 -10.865951 -2.793925 -0.181270 -1.262119 0.000000 0.000000 0.000000 4.882398 -82.109392 4.983335 -7.326478 -14.844904 -11.567602 27.041901 14.121483 -1.561416 -23.204652 -9.500324 15.176948 3.688369 0.036263 -20.404816 0.000000 0.000000 0.000000 -15.920298 -81.715277 -14.835649 -5.400956 3.734105 2.820965 9.034254 -0.565731 2.114588 0.002279 -0.167663 0.078859 0.000000 0.000000 0.000000 10.770566 1.596699 3.079470 -5.367691 11.585859 -2.807778 -5.960753 -36.793447 -9.375969 0.000000 0.000000 0.000000 9.968860 0.090559 2.387801 0.201288 1.388918 -4.169263 8.559858 -4.824329 -1.186126 43.411955 -78.376865 -21.142147 -3.319140 -14.574756 -0.670146 0.000000 0.000000 0.000000 10.105309 0.186555 3.172336 -9.483785 -1.574769 5.625931 5.414623 2.259777 2.102153 5.030508 32.246542 69.034204 -3.004951 20.971186 -7.477893 0.000000 0.000000 0.000000 
-0.687940 33.542240 -2.728205 0.000000 0.000000 0.000000 3.894967 -84.377083 5.069736 -13.765416 20.088715 15.814565 29.796284 -9.995260 -3.485929 -16.653243 5.574417 -10.898287 -3.372570 -0.135996 -1.446575 0.000000 0.000000 0.000000 5.834817 -82.335123 5.877175 -7.048745 -15.097710 -11.309316 26.827337 13.882685 -1.852098 -23.075299 -9.300728 15.530510 3.544122 0.063444 -19.932814 0.000000 0.000000 0.000000 -14.434174 -81.904610 -13.367462 -4.905192 3.560628 2.793198 8.466302 -0.483592 2.037194 0.021375 -0.222506 0.062421 0.000000 0.000000 0.000000 10.673729 1.726377 3.023743 -5.232757 11.730105 -2.613481 -7.057125 -36.222249 -9.916318 0.000000 0.000000 0.000000 9.968002 0.184338 2.431544 0.488006 1.405803 -3.972048 8.014588 -4.181170 -2.293068 50.647321 -78.368457 -14.014355 -2.770741 -15.365549 -0.171647 0.000000 0.000000 0.000000 9.904331 0.243651 3.166036 -9.211126 -1.228300 5.077658 5.842701 2.277157 2.069043 4.790658 31.331970 69.950727 -1.875171 21.860473 -8.332312 0.000000 0.000000 0.000000 
-0.627588 33.600224 -2.632464 0.000000 0.000000 0.000000 5.226663 -84.633817 6.401311 -14.251779 19.407110 16.001414 29.927734 -10.089878 -3.753688 -15.743161 6.227642 -11.284098 -3.880352 -0.119730 -1.452119 0.000000 0.000000 0.000000 6.872959 -82.595456 6.908006 -6.832143 -15.434059 -11.064393 26.536475 13.588207 -2.148757 -22.922511 -9.054032 15.956066 3.460060 0.109809 -19.431661 0.000000 0.000000 0.000000 -12.471723 -82.085425 -11.459496 -4.298214 3.376770 2.725969 7.870202 -0.374121 1.936769 0.069251 -0.291267 0.040745 0.000000 0.000000 0.000000 10.528884 1.860431 2.986146 -5.089455 11.915419 -2.390761 -8.251928 -35.500079 -10.432299 0.000000 0.000000 0.000000 9.902272 0.302119 2.462439 0.810723 1.598826 -3.892402 7.188488 -3.613600 -3.284058 58.425841 -78.255882 -6.261306 -2.035370 -16.193593 0.457891 0.000000 0.000000 0.000000 9.639739 0.310800 3.160597 -8.905038 -0.718379 4.662658 6.062790 2.249741 2.130181 4.427417 30.046849 70.972154 -0.447464 22.987352 -9.392133 0.000000 0.000000 0.000000 
-0.504738 33.653725 -2.532068 0.000000 0.000000 0.000000 6.550891 -84.851324 7.698619 -14.715742 18.805109 16.244951 29.997761 -10.201317 -4.237778 -14.757208 6.950996 -11.852710 -4.258215 -0.152301 -1.181431 0.000000 0.000000 0.000000 7.602506 -82.841985 7.633138 -6.755049 -15.787603 -10.875230 26.225423 13.220535 -2.380302 -22.744579 -8.708721 16.274369 3.312852 0.224526 -19.034139 0.000000 0.000000 0.000000 -10.702702 -82.253769 -9.801802 -3.558395 3.199373 2.581922 7.285925 -0.233867 1.839507 0.114809 -0.343366 0.021406 0.000000 0.000000 0.000000 10.334244 1.987003 2.985735 -5.041422 12.098935 -2.156890 -9.605637 -34.646377 -10.961103 0.000000 0.000000 0.000000 9.718513 0.436255 2.471560 1.101911 1.959368 -4.055660 6.354696 -3.539014 -3.957547 64.037695 -77.986581 -0.554650 -1.362340 -16.971258 0.998011 0.000000 0.000000 0.000000 9.296546 0.392643 3.170705 -8.613123 -0.078859 4.455562 6.137545 2.244664 2.347156 4.032395 28.458087 71.787453 1.066950 24.141447 -10.482158 0.000000 0.000000 0.000000 
-0.338928 33.706997 -2.482058 0.000000 0.000000 0.000000 7.154000 -85.042590 8.244808 -15.029092 18.187800 16.562731 29.817700 -10.199374 -4.862261 -13.853661 7.795075 -12.455340 -4.690385 -0.237231 -0.533329 0.000000 0.000000 0.000000 7.754894 -83.110801 7.743675 -6.926492 -16.191061 -10.771475 26.108159 12.736558 -2.467892 -22.497018 -8.300501 16.289287 3.234697 0.406323 -18.821828 0.000000 0.000000 0.000000 -9.559711 -82.423062 -8.808849 -2.678891 3.047758 2.380323 6.745593 -0.061178 1.759287 0.162434 -0.356851 0.006030 0.000000 0.000000 0.000000 10.135098 2.098249 3.017484 -5.163719 12.234243 -1.958046 -11.219671 -33.658124 -11.589238 0.000000 0.000000 0.000000 9.413461 0.576844 2.450114 1.343419 2.516647 -4.510485 5.770833 -4.169495 -4.028295 64.811043 -77.580581 0.599025 -0.896550 -17.902616 1.327205 0.000000 0.000000 0.000000 8.900059 0.485860 3.186963 -8.392573 0.536608 4.367380 6.227791 2.650330 2.434932 3.696309 26.650189 72.279889 2.492212 25.435336 -11.449584 0.000000 0.000000 0.000000 
-0.121881 33.755108 -2.494040 0.000000 0.000000 0.000000 6.896002 -85.205353 7.892974 -15.126436 17.416948 16.794153 29.363021 -9.833046 -5.597729 -13.245245 8.800750 -12.722160 -4.941918 -0.364345 0.232594 0.000000 0.000000 0.000000 7.083844 -83.451982 7.024780 -7.492163 -16.639633 -10.794344 26.422781 12.150752 -2.355440 -22.122899 -7.828482 15.976533 3.220671 0.654565 -18.825716 0.000000 0.000000 0.000000 -9.074166 -82.591563 -8.443277 -1.673613 2.933640 2.156931 6.281866 0.132806 1.676661 0.188197 -0.323842 -0.004432 0.000000 0.000000 0.000000 9.975677 2.184364 3.041248 -5.509190 12.306487 -1.832407 -13.150990 -32.550551 -12.406674 0.000000 0.000000 0.000000 9.043281 0.703618 2.377332 1.506350 3.237966 -5.181439 5.486435 -5.137533 -3.521877 59.222774 -76.830489 -4.169717 -0.708327 -19.578862 1.383709 0.000000 0.000000 0.000000 8.486569 0.573458 3.176493 -8.239464 0.963009 4.294791 6.281658 3.215637 2.408954 3.449222 24.813765 72.476496 3.711241 27.273196 -12.161461 0.000000 0.000000 0.000000 
